<svg width="60" height="60" viewBox="0 0 60 60" fill="none" xmlns="http://www.w3.org/2000/svg">
<mask id="mask0_1065_3035" style="mask-type:alpha" maskUnits="userSpaceOnUse" x="0" y="0" width="60" height="60">
<rect width="60" height="60" fill="#D9D9D9"/>
</mask>
<g mask="url(#mask0_1065_3035)">
<path d="M12.5 44.625C14.75 42.4167 17.3646 40.6771 20.3438 39.4062C23.3229 38.1354 26.5417 37.5 30 37.5C33.4583 37.5 36.6771 38.1354 39.6562 39.4062C42.6354 40.6771 45.25 42.4167 47.5 44.625V12.5H12.5V44.625ZM30 32.5C32.4167 32.5 34.4792 31.6458 36.1875 29.9375C37.8958 28.2292 38.75 26.1667 38.75 23.75C38.75 21.3333 37.8958 19.2708 36.1875 17.5625C34.4792 15.8542 32.4167 15 30 15C27.5833 15 25.5208 15.8542 23.8125 17.5625C22.1042 19.2708 21.25 21.3333 21.25 23.75C21.25 26.1667 22.1042 28.2292 23.8125 29.9375C25.5208 31.6458 27.5833 32.5 30 32.5ZM12.5 52.5C11.125 52.5 9.94792 52.0104 8.96875 51.0312C7.98958 50.0521 7.5 48.875 7.5 47.5V12.5C7.5 11.125 7.98958 9.94792 8.96875 8.96875C9.94792 7.98958 11.125 7.5 12.5 7.5H47.5C48.875 7.5 50.0521 7.98958 51.0312 8.96875C52.0104 9.94792 52.5 11.125 52.5 12.5V47.5C52.5 48.875 52.0104 50.0521 51.0312 51.0312C50.0521 52.0104 48.875 52.5 47.5 52.5H12.5ZM17.5 47.5H42.5V46.875C40.75 45.4167 38.8125 44.3229 36.6875 43.5938C34.5625 42.8646 32.3333 42.5 30 42.5C27.6667 42.5 25.4375 42.8646 23.3125 43.5938C21.1875 44.3229 19.25 45.4167 17.5 46.875V47.5ZM30 27.5C28.9583 27.5 28.0729 27.1354 27.3438 26.4062C26.6146 25.6771 26.25 24.7917 26.25 23.75C26.25 22.7083 26.6146 21.8229 27.3438 21.0938C28.0729 20.3646 28.9583 20 30 20C31.0417 20 31.9271 20.3646 32.6562 21.0938C33.3854 21.8229 33.75 22.7083 33.75 23.75C33.75 24.7917 33.3854 25.6771 32.6562 26.4062C31.9271 27.1354 31.0417 27.5 30 27.5Z" fill="white"/>
</g>
</svg>
