<svg width="60" height="60" viewBox="0 0 60 60" fill="none" xmlns="http://www.w3.org/2000/svg">
<mask id="mask0_1065_3026" style="mask-type:alpha" maskUnits="userSpaceOnUse" x="0" y="0" width="60" height="60">
<rect width="60" height="60" fill="#D9D9D9"/>
</mask>
<g mask="url(#mask0_1065_3026)">
<path d="M12.5 55C11.125 55 9.94792 54.5104 8.96875 53.5312C7.98958 52.5521 7.5 51.375 7.5 50V21.8125C6.75 21.3542 6.14583 20.7604 5.6875 20.0313C5.22917 19.3021 5 18.4583 5 17.5V10C5 8.625 5.48958 7.44792 6.46875 6.46875C7.44792 5.48958 8.625 5 10 5H50C51.375 5 52.5521 5.48958 53.5312 6.46875C54.5104 7.44792 55 8.625 55 10V17.5C55 18.4583 54.7708 19.3021 54.3125 20.0313C53.8542 20.7604 53.25 21.3542 52.5 21.8125V50C52.5 51.375 52.0104 52.5521 51.0312 53.5312C50.0521 54.5104 48.875 55 47.5 55H12.5ZM12.5 22.5V50H47.5V22.5H12.5ZM10 17.5H50V10H10V17.5ZM22.5 35H37.5V30H22.5V35Z" fill="white"/>
</g>
</svg>
