<svg width="150" height="150" viewBox="0 0 150 150" fill="none" xmlns="http://www.w3.org/2000/svg">
<mask id="mask0_280_3149" style="mask-type:alpha" maskUnits="userSpaceOnUse" x="0" y="0" width="150" height="150">
<rect width="150" height="150" fill="#D9D9D9"/>
</mask>
<g mask="url(#mask0_280_3149)">
<path d="M75 137.5C63.9583 137.5 54.9479 135.755 47.9688 132.266C40.9896 128.776 37.5 124.271 37.5 118.75C37.5 115.104 39.0104 111.927 42.0312 109.219C45.0521 106.51 49.2188 104.375 54.5312 102.812L58.125 114.688C56.3542 115.208 54.7396 115.859 53.2813 116.641C51.8229 117.422 50.8333 118.125 50.3125 118.75C51.6667 120.417 54.7917 121.875 59.6875 123.125C64.5833 124.375 69.6875 125 75 125C80.3125 125 85.4427 124.375 90.3906 123.125C95.3385 121.875 98.4896 120.417 99.8438 118.75C99.3229 118.125 98.3333 117.422 96.875 116.641C95.4167 115.859 93.8021 115.208 92.0313 114.688L95.625 102.812C100.938 104.375 105.078 106.51 108.047 109.219C111.016 111.927 112.5 115.104 112.5 118.75C112.5 124.271 109.01 128.776 102.031 132.266C95.0521 135.755 86.0417 137.5 75 137.5ZM75 95.7812C76.875 92.3438 78.8542 89.1927 80.9375 86.3281C83.0208 83.4635 85.0521 80.7292 87.0312 78.125C90.8854 73.125 93.9583 68.6198 96.25 64.6094C98.5417 60.599 99.6875 55.625 99.6875 49.6875C99.6875 42.8125 97.2917 36.9792 92.5 32.1875C87.7083 27.3958 81.875 25 75 25C68.125 25 62.2917 27.3958 57.5 32.1875C52.7083 36.9792 50.3125 42.8125 50.3125 49.6875C50.3125 55.625 51.4583 60.599 53.75 64.6094C56.0417 68.6198 59.1146 73.125 62.9688 78.125C64.9479 80.7292 66.9792 83.4635 69.0625 86.3281C71.1458 89.1927 73.125 92.3438 75 95.7812ZM75 118.75C73.8542 118.75 72.8125 118.411 71.875 117.734C70.9375 117.057 70.2604 116.146 69.8438 115C67.4479 107.604 64.4271 101.406 60.7812 96.4062C57.1354 91.4062 53.5938 86.6146 50.1563 82.0312C46.8229 77.4479 43.9323 72.7083 41.4844 67.8125C39.0365 62.9167 37.8125 56.875 37.8125 49.6875C37.8125 39.2708 41.4062 30.4688 48.5938 23.2812C55.7812 16.0938 64.5833 12.5 75 12.5C85.4167 12.5 94.2188 16.0938 101.406 23.2812C108.594 30.4688 112.188 39.2708 112.188 49.6875C112.188 56.875 110.99 62.9167 108.594 67.8125C106.198 72.7083 103.281 77.4479 99.8438 82.0312C96.5104 86.6146 92.9948 91.4062 89.2969 96.4062C85.599 101.406 82.5521 107.604 80.1562 115C79.7396 116.146 79.0625 117.057 78.125 117.734C77.1875 118.411 76.1458 118.75 75 118.75ZM75 62.9688C78.6458 62.9688 81.7708 61.6667 84.375 59.0625C86.9792 56.4583 88.2812 53.3333 88.2812 49.6875C88.2812 46.0417 86.9792 42.9167 84.375 40.3125C81.7708 37.7083 78.6458 36.4062 75 36.4062C71.3542 36.4062 68.2292 37.7083 65.625 40.3125C63.0208 42.9167 61.7188 46.0417 61.7188 49.6875C61.7188 53.3333 63.0208 56.4583 65.625 59.0625C68.2292 61.6667 71.3542 62.9688 75 62.9688Z" fill="#0B416F"/>
</g>
</svg>
