<svg width="150" height="150" viewBox="0 0 150 150" fill="none" xmlns="http://www.w3.org/2000/svg">
<mask id="mask0_280_3095" style="mask-type:alpha" maskUnits="userSpaceOnUse" x="0" y="0" width="150" height="150">
<rect width="150" height="150" fill="#D9D9D9"/>
</mask>
<g mask="url(#mask0_280_3095)">
<path d="M25 125C21.5625 125 18.6198 123.776 16.1719 121.328C13.724 118.88 12.5 115.938 12.5 112.5V37.5C12.5 34.0625 13.724 31.1198 16.1719 28.6719C18.6198 26.224 21.5625 25 25 25H125C128.438 25 131.38 26.224 133.828 28.6719C136.276 31.1198 137.5 34.0625 137.5 37.5V112.5C137.5 115.938 136.276 118.88 133.828 121.328C131.38 123.776 128.438 125 125 125H25ZM75 81.25L25 50V112.5H125V50L75 81.25ZM75 68.75L125 37.5H25L75 68.75ZM25 50V37.5V112.5V50Z" fill="#0B416F"/>
</g>
</svg>
