<svg width="60" height="60" viewBox="0 0 60 60" fill="none" xmlns="http://www.w3.org/2000/svg">
<mask id="mask0_1065_3008" style="mask-type:alpha" maskUnits="userSpaceOnUse" x="0" y="0" width="60" height="60">
<rect width="60" height="60" fill="#D9D9D9"/>
</mask>
<g mask="url(#mask0_1065_3008)">
<path d="M35.0005 32.502C32.9172 32.502 31.1463 31.7728 29.688 30.3145C28.2297 28.8561 27.5005 27.0853 27.5005 25.002C27.5005 22.9186 28.2297 21.1478 29.688 19.6895C31.1463 18.2311 32.9172 17.502 35.0005 17.502C37.0838 17.502 38.8547 18.2311 40.313 19.6895C41.7713 21.1478 42.5005 22.9186 42.5005 25.002C42.5005 27.0853 41.7713 28.8561 40.313 30.3145C38.8547 31.7728 37.0838 32.502 35.0005 32.502ZM17.5005 40.002C16.1255 40.002 14.9484 39.5124 13.9692 38.5332C12.9901 37.554 12.5005 36.377 12.5005 35.002V15.002C12.5005 13.627 12.9901 12.4499 13.9692 11.4707C14.9484 10.4915 16.1255 10.002 17.5005 10.002H52.5005C53.8755 10.002 55.0526 10.4915 56.0317 11.4707C57.0109 12.4499 57.5005 13.627 57.5005 15.002V35.002C57.5005 36.377 57.0109 37.554 56.0317 38.5332C55.0526 39.5124 53.8755 40.002 52.5005 40.002H17.5005ZM22.5005 35.002H47.5005C47.5005 33.627 47.9901 32.4499 48.9692 31.4707C49.9484 30.4915 51.1255 30.002 52.5005 30.002V20.002C51.1255 20.002 49.9484 19.5124 48.9692 18.5332C47.9901 17.554 47.5005 16.377 47.5005 15.002H22.5005C22.5005 16.377 22.0109 17.554 21.0317 18.5332C20.0526 19.5124 18.8755 20.002 17.5005 20.002V30.002C18.8755 30.002 20.0526 30.4915 21.0317 31.4707C22.0109 32.4499 22.5005 33.627 22.5005 35.002ZM50.0005 50.002H7.50049C6.12549 50.002 4.94841 49.5124 3.96924 48.5332C2.99007 47.554 2.50049 46.377 2.50049 45.002V17.502H7.50049V45.002H50.0005V50.002Z" fill="white"/>
</g>
</svg>
