<svg width="150" height="150" viewBox="0 0 150 150" fill="none" xmlns="http://www.w3.org/2000/svg">
<mask id="mask0_280_3107" style="mask-type:alpha" maskUnits="userSpaceOnUse" x="0" y="0" width="150" height="150">
<rect width="150" height="150" fill="#D9D9D9"/>
</mask>
<g mask="url(#mask0_280_3107)">
<path d="M106.25 118.75H118.75V31.25H106.25V118.75ZM43.7498 87.5C45.5206 87.5 47.005 86.901 48.2029 85.7031C49.4008 84.5052 49.9998 83.0208 49.9998 81.25C49.9998 79.4792 49.4008 77.9948 48.2029 76.7969C47.005 75.599 45.5206 75 43.7498 75C41.9789 75 40.4945 75.599 39.2966 76.7969C38.0987 77.9948 37.4998 79.4792 37.4998 81.25C37.4998 83.0208 38.0987 84.5052 39.2966 85.7031C40.4945 86.901 41.9789 87.5 43.7498 87.5ZM43.7498 106.25C45.5206 106.25 47.005 105.651 48.2029 104.453C49.4008 103.255 49.9998 101.771 49.9998 100C49.9998 98.2292 49.4008 96.7448 48.2029 95.5469C47.005 94.349 45.5206 93.75 43.7498 93.75C41.9789 93.75 40.4945 94.349 39.2966 95.5469C38.0987 96.7448 37.4998 98.2292 37.4998 100C37.4998 101.771 38.0987 103.255 39.2966 104.453C40.4945 105.651 41.9789 106.25 43.7498 106.25ZM37.4998 68.75H87.4998V43.75H37.4998V68.75ZM62.4998 87.5C64.2706 87.5 65.755 86.901 66.9529 85.7031C68.1508 84.5052 68.7498 83.0208 68.7498 81.25C68.7498 79.4792 68.1508 77.9948 66.9529 76.7969C65.755 75.599 64.2706 75 62.4998 75C60.7289 75 59.2445 75.599 58.0466 76.7969C56.8487 77.9948 56.2498 79.4792 56.2498 81.25C56.2498 83.0208 56.8487 84.5052 58.0466 85.7031C59.2445 86.901 60.7289 87.5 62.4998 87.5ZM62.4998 106.25C64.2706 106.25 65.755 105.651 66.9529 104.453C68.1508 103.255 68.7498 101.771 68.7498 100C68.7498 98.2292 68.1508 96.7448 66.9529 95.5469C65.755 94.349 64.2706 93.75 62.4998 93.75C60.7289 93.75 59.2445 94.349 58.0466 95.5469C56.8487 96.7448 56.2498 98.2292 56.2498 100C56.2498 101.771 56.8487 103.255 58.0466 104.453C59.2445 105.651 60.7289 106.25 62.4998 106.25ZM81.2498 87.5C83.0206 87.5 84.505 86.901 85.7029 85.7031C86.9008 84.5052 87.4998 83.0208 87.4998 81.25C87.4998 79.4792 86.9008 77.9948 85.7029 76.7969C84.505 75.599 83.0206 75 81.2498 75C79.4789 75 77.9945 75.599 76.7966 76.7969C75.5987 77.9948 74.9998 79.4792 74.9998 81.25C74.9998 83.0208 75.5987 84.5052 76.7966 85.7031C77.9945 86.901 79.4789 87.5 81.2498 87.5ZM81.2498 106.25C83.0206 106.25 84.505 105.651 85.7029 104.453C86.9008 103.255 87.4998 101.771 87.4998 100C87.4998 98.2292 86.9008 96.7448 85.7029 95.5469C84.505 94.349 83.0206 93.75 81.2498 93.75C79.4789 93.75 77.9945 94.349 76.7966 95.5469C75.5987 96.7448 74.9998 98.2292 74.9998 100C74.9998 101.771 75.5987 103.255 76.7966 104.453C77.9945 105.651 79.4789 106.25 81.2498 106.25ZM93.7498 112.5V37.5H31.2498V112.5H93.7498ZM106.25 131.25C103.854 131.25 101.745 130.677 99.9216 129.531C98.0987 128.385 96.6143 126.875 95.4685 125H31.2498C27.8123 125 24.8695 123.776 22.4216 121.328C19.9737 118.88 18.7498 115.938 18.7498 112.5V37.5C18.7498 34.0625 19.9737 31.1198 22.4216 28.6719C24.8695 26.224 27.8123 25 31.2498 25H95.4685C96.6143 23.125 98.0987 21.6146 99.9216 20.4688C101.745 19.3229 103.854 18.75 106.25 18.75H118.75C122.187 18.75 125.13 19.974 127.578 22.4219C130.026 24.8698 131.25 27.8125 131.25 31.25V118.75C131.25 122.188 130.026 125.13 127.578 127.578C125.13 130.026 122.187 131.25 118.75 131.25H106.25Z" fill="#0B416F"/>
</g>
</svg>
